<svg width="98" height="98" viewBox="0 0 98 98" fill="none" xmlns="http://www.w3.org/2000/svg">
<path d="M89.25 40.25H59.5C58.5336 40.25 57.75 39.4664 57.75 38.5V8.75C57.75 3.91785 53.8322 0 49 0C44.1678 0 40.25 3.91785 40.25 8.75V38.5C40.25 39.4664 39.4664 40.25 38.5 40.25H8.75C3.91785 40.25 0 44.1678 0 49C0 53.8322 3.91785 57.75 8.75 57.75H38.5C39.4664 57.75 40.25 58.5336 40.25 59.5V89.25C40.25 94.0822 44.1678 98 49 98C53.8322 98 57.75 94.0822 57.75 89.25V59.5C57.75 58.5336 58.5336 57.75 59.5 57.75H89.25C94.0822 57.75 98 53.8322 98 49C98 44.1678 94.0822 40.25 89.25 40.25Z" fill="white"/>
</svg>
