<svg width="39" height="48" viewBox="0 0 39 48" fill="none" xmlns="http://www.w3.org/2000/svg">
<path d="M34.9219 6.52637H26.8438V5.05762C26.8438 2.62803 24.8671 0.651367 22.4375 0.651367H16.5625C14.1329 0.651367 12.1562 2.62803 12.1562 5.05762V6.52637H4.07812C2.05345 6.52637 0.40625 8.17357 0.40625 10.1982V15.3389C0.40625 16.15 1.06388 16.8076 1.875 16.8076H2.67767L3.94658 43.4547C4.05866 45.808 5.99191 47.6514 8.34778 47.6514H30.6522C33.0082 47.6514 34.9414 45.808 35.0534 43.4547L36.3223 16.8076H37.125C37.9361 16.8076 38.5938 16.15 38.5938 15.3389V10.1982C38.5938 8.17357 36.9465 6.52637 34.9219 6.52637ZM15.0938 5.05762C15.0938 4.24779 15.7527 3.58887 16.5625 3.58887H22.4375C23.2473 3.58887 23.9062 4.24779 23.9062 5.05762V6.52637H15.0938V5.05762ZM3.34375 10.1982C3.34375 9.79333 3.67321 9.46387 4.07812 9.46387H34.9219C35.3268 9.46387 35.6562 9.79333 35.6562 10.1982V13.8701C35.2036 13.8701 5.21944 13.8701 3.34375 13.8701V10.1982ZM32.1192 43.315C32.0819 44.0994 31.4375 44.7139 30.6522 44.7139H8.34778C7.56246 44.7139 6.91804 44.0994 6.88078 43.315L5.61848 16.8076H33.3815L32.1192 43.315Z" fill="#FF5252"/>
<path d="M19.499 41.7744C20.3101 41.7744 20.9678 41.1168 20.9678 40.3057V21.2119C20.9678 20.4008 20.3101 19.7432 19.499 19.7432C18.6879 19.7432 18.0303 20.4008 18.0303 21.2119V40.3057C18.0303 41.1168 18.6878 41.7744 19.499 41.7744Z" fill="#FF5252"/>
<path d="M26.8438 41.7744C27.6549 41.7744 28.3125 41.1168 28.3125 40.3057V21.2119C28.3125 20.4008 27.6549 19.7432 26.8438 19.7432C26.0326 19.7432 25.375 20.4008 25.375 21.2119V40.3057C25.375 41.1168 26.0325 41.7744 26.8438 41.7744Z" fill="#FF5252"/>
<path d="M12.1563 41.7744C12.9674 41.7744 13.625 41.1168 13.625 40.3057V21.2119C13.625 20.4008 12.9674 19.7432 12.1563 19.7432C11.3451 19.7432 10.6875 20.4008 10.6875 21.2119V40.3057C10.6875 41.1168 11.345 41.7744 12.1563 41.7744Z" fill="#FF5252"/>
</svg>
