<svg width="103" height="103" viewBox="0 0 103 103" fill="none" xmlns="http://www.w3.org/2000/svg">
<path fill-rule="evenodd" clip-rule="evenodd" d="M0 0V10.2452H10.2962L28.8293 49.1259L21.8794 61.625C18.1213 68.4893 23.0634 76.8392 30.8885 76.8392H92.6656V66.594H30.8885L36.5514 56.3488H74.9047C78.7657 56.3488 82.1635 54.2485 83.9138 51.0725L102.344 17.8267C104.249 14.4458 101.778 10.2452 97.8652 10.2452H21.6735L16.8342 0H0ZM30.8885 81.9617C25.2256 81.9617 20.6438 86.572 20.6438 92.2069C20.6438 97.8418 25.2256 102.452 30.8885 102.452C36.5514 102.452 41.1847 97.8418 41.1847 92.2069C41.1847 86.572 36.5514 81.9617 30.8885 81.9617ZM72.1244 92.2069C72.1244 86.572 76.7062 81.9617 82.3691 81.9617C88.032 81.9617 92.6653 86.572 92.6653 92.2069C92.6653 97.8418 88.032 102.452 82.3691 102.452C76.7062 102.452 72.1244 97.8418 72.1244 92.2069Z" fill="white"/>
</svg>
