<svg width="25" height="26" viewBox="0 0 25 26" fill="none" xmlns="http://www.w3.org/2000/svg">
<rect x="0.840078" y="1.68004" width="22.8" height="22.8" rx="11.4" stroke="#416832" stroke-width="1.52"/>
<path d="M12.8 10C12.8 9.58026 12.4598 9.24 12.04 9.24C11.6203 9.24 11.28 9.58026 11.28 10L12.8 10ZM11.28 16.08C11.28 16.4997 11.6203 16.84 12.04 16.84C12.4598 16.84 12.8 16.4997 12.8 16.08L11.28 16.08ZM11.28 10L11.28 16.08L12.8 16.08L12.8 10L11.28 10Z" fill="#416832"/>
<path d="M9 12.28C8.58026 12.28 8.24 12.6203 8.24 13.04C8.24 13.4598 8.58026 13.8 9 13.8V12.28ZM15.08 13.8C15.4997 13.8 15.84 13.4598 15.84 13.04C15.84 12.6203 15.4997 12.28 15.08 12.28V13.8ZM9 13.8H15.08V12.28H9V13.8Z" fill="#416832"/>
</svg>
