<svg width="171" height="171" viewBox="0 0 171 171" fill="none" xmlns="http://www.w3.org/2000/svg">
<path d="M50.7655 101.531L30.9029 97.1174C28.4581 96.5749 26.7188 94.4054 26.7188 91.9019V88.172C26.7188 79.3174 33.8954 72.1406 42.7499 72.1406H72.1405L50.7655 101.531Z" fill="url(#paint0_linear)"/>
<path d="M72.1406 122.906L76.5546 142.769C77.0969 145.214 79.2666 146.954 81.7701 146.954H85.5001C94.3546 146.954 101.531 139.777 101.531 130.922V101.531L72.1406 122.906Z" fill="url(#paint1_linear)"/>
<path d="M72.1406 122.906C108.125 117.72 140.901 88.0965 146.088 52.1117C146.967 46.0145 147.158 40.0268 146.748 34.2074C146.474 30.3306 143.341 27.1964 139.463 26.9239C133.645 26.5124 127.66 26.7048 121.56 27.5838C85.5749 32.77 55.9518 65.5458 50.7656 101.531L72.1406 122.906Z" fill="url(#paint2_linear)"/>
<path d="M110.883 50.7656C109.304 50.7656 107.74 51.0767 106.282 51.6809C104.823 52.2851 103.497 53.1708 102.381 54.2873C101.264 55.4038 100.379 56.7292 99.7746 58.188C99.1703 59.6467 98.8594 61.2101 98.8594 62.7891C98.8594 64.3681 99.1703 65.9316 99.7746 67.3903C100.379 68.8491 101.264 70.1745 102.381 71.291C103.497 72.4075 104.823 73.2931 106.282 73.8974C107.74 74.5015 109.304 74.8126 110.883 74.8126C112.462 74.8126 114.025 74.5015 115.484 73.8974C116.943 73.2931 118.268 72.4075 119.385 71.291C120.501 70.1745 121.387 68.8491 121.991 67.3903C122.595 65.9316 122.906 64.3681 122.906 62.7891C122.906 61.2101 122.595 59.6467 121.991 58.188C121.387 56.7292 120.501 55.4038 119.385 54.2873C118.268 53.1708 116.943 52.2851 115.484 51.6809C114.025 51.0767 112.462 50.7656 110.883 50.7656Z" fill="#D4EBFB"/>
<path d="M47.4444 109.547C38.9506 109.547 32.0625 116.435 32.0625 124.929V136.265C32.0625 139.218 34.4538 141.609 37.4062 141.609H48.7431C57.2369 141.609 64.125 134.721 64.125 126.227C64.125 124.101 63.2806 122.062 61.7764 120.56L53.1115 111.895C51.61 110.391 49.5713 109.547 47.4444 109.547Z" fill="url(#paint3_linear)"/>
<path d="M72.6456 122.823C97.4325 119.088 120.63 103.786 134.27 82.8281H92.1796C88.4898 82.8281 85.5 85.8179 85.5 89.5079C85.5 93.1977 88.4898 96.1875 92.1796 96.1875C95.8696 96.1875 98.8594 99.1774 98.8594 102.867C98.8594 106.557 95.8696 109.547 92.1796 109.547H73.4765C69.7867 109.547 66.7969 112.537 66.7969 116.227C66.7969 116.756 66.8743 117.263 66.9893 117.755L71.9481 122.714C72.1753 122.767 72.4104 122.794 72.6456 122.823Z" fill="url(#paint4_linear)"/>
<defs>
<linearGradient id="paint0_linear" x1="49.4296" y1="72.1406" x2="49.4296" y2="101.531" gradientUnits="userSpaceOnUse">
<stop stop-color="#40DAF2"/>
<stop offset="0.259" stop-color="#3BD3EF"/>
<stop offset="0.624" stop-color="#2EC1E8"/>
<stop offset="1" stop-color="#1BA7DD"/>
</linearGradient>
<linearGradient id="paint1_linear" x1="86.836" y1="101.531" x2="86.836" y2="146.954" gradientUnits="userSpaceOnUse">
<stop stop-color="#40DAF2"/>
<stop offset="0.259" stop-color="#3BD3EF"/>
<stop offset="0.624" stop-color="#2EC1E8"/>
<stop offset="1" stop-color="#1BA7DD"/>
</linearGradient>
<linearGradient id="paint2_linear" x1="98.8594" y1="122.906" x2="98.8594" y2="26.7182" gradientUnits="userSpaceOnUse">
<stop stop-color="#155CDE"/>
<stop offset="0.278" stop-color="#1F7FE5"/>
<stop offset="0.569" stop-color="#279CEB"/>
<stop offset="0.82" stop-color="#2CAFEF"/>
<stop offset="1" stop-color="#2EB5F0"/>
</linearGradient>
<linearGradient id="paint3_linear" x1="48.0938" y1="141.609" x2="48.0938" y2="109.547" gradientUnits="userSpaceOnUse">
<stop stop-color="#FF634D"/>
<stop offset="0.207" stop-color="#FE6464"/>
<stop offset="0.527" stop-color="#FC6581"/>
<stop offset="0.802" stop-color="#FA6694"/>
<stop offset="1" stop-color="#FA669A"/>
</linearGradient>
<linearGradient id="paint4_linear" x1="100.532" y1="122.976" x2="100.532" y2="40.372" gradientUnits="userSpaceOnUse">
<stop stop-color="#155CDE"/>
<stop offset="0.486" stop-color="#2185E6"/>
<stop offset="1" stop-color="#2EB5F0"/>
</linearGradient>
</defs>
</svg>
