<svg width="50" height="50" viewBox="0 0 50 50" fill="none" xmlns="http://www.w3.org/2000/svg">
<path fill-rule="evenodd" clip-rule="evenodd" d="M0 0V4.94522H4.96981L13.9155 23.7123L10.5609 29.7455C8.74687 33.0588 11.1324 37.0892 14.9094 37.0892H44.7283V32.1439H14.9094L17.6428 27.1987H36.1554C38.0191 27.1987 39.6591 26.1849 40.504 24.6519L49.3999 8.60468C50.3194 6.97276 49.1266 4.94522 47.2381 4.94522H10.4615L8.12564 0H0ZM14.9094 39.5617C12.176 39.5617 9.96446 41.787 9.96446 44.5069C9.96446 47.2268 12.176 49.4521 14.9094 49.4521C17.6428 49.4521 19.8792 47.2268 19.8792 44.5069C19.8792 41.787 17.6428 39.5617 14.9094 39.5617ZM34.8134 44.5069C34.8134 41.787 37.025 39.5617 39.7584 39.5617C42.4918 39.5617 44.7282 41.787 44.7282 44.5069C44.7282 47.2268 42.4918 49.4521 39.7584 49.4521C37.025 49.4521 34.8134 47.2268 34.8134 44.5069Z" fill="#416832"/>
</svg>
