<svg width="48" height="49" viewBox="0 0 48 49" fill="none" xmlns="http://www.w3.org/2000/svg">
<g clip-path="url(#clip0)">
<path d="M34.2167 46.6739L26.9999 45.0701V29.4906C33.7724 28.5149 38.9999 22.6893 38.9999 15.6504C38.9999 15.039 38.9491 14.3916 38.8456 13.6768C38.8476 13.6182 38.8437 13.5576 38.8339 13.4981L36.9882 1.49808C36.914 1.01077 36.4941 0.650391 35.9999 0.650391H27.1992C26.7226 0.650391 26.3125 0.987328 26.2187 1.45411L25.0195 7.45411C24.9609 7.74802 25.0371 8.0527 25.2265 8.28417C25.4159 8.51564 25.7011 8.65036 25.9999 8.65036H30.3827L26.535 16.3427L26.994 11.7499C27.0234 11.4687 26.9315 11.1884 26.742 10.9794C26.5526 10.7694 26.283 10.6503 25.9998 10.6503H21.1522L22.4178 1.79189C22.4589 1.50473 22.3729 1.21373 22.1834 0.995016C21.9941 0.776391 21.7167 0.650391 21.4277 0.650391H14C13.5058 0.650391 13.0859 1.01077 13.0117 1.49808L11.1641 13.4981C11.1543 13.5596 11.1504 13.6212 11.1543 13.6827C11.0508 14.3955 11 15.0411 11 15.6505C11 22.6894 16.2275 28.515 23 29.4907V45.0701L15.7832 46.6739C15.2851 46.7852 14.9512 47.253 15.0058 47.7598C15.0625 48.2666 15.4902 48.6504 16 48.6504H34C34.5098 48.6504 34.9375 48.2666 34.9941 47.7598C35.0487 47.253 34.7148 46.7851 34.2167 46.6739Z" fill="#263238"/>
</g>
<defs>
<clipPath id="clip0">
<rect width="48" height="48" fill="white" transform="translate(0 0.650391)"/>
</clipPath>
</defs>
</svg>
