<svg width="43" height="43" viewBox="0 0 43 43" fill="none" xmlns="http://www.w3.org/2000/svg">
<path d="M40.8746 33.985L29.1619 22.2722C28.7814 21.8917 28.7814 21.2747 29.1619 20.8942L40.8746 9.18146C42.7771 7.27901 42.7771 4.19405 40.8746 2.2916C38.9722 0.389154 35.8872 0.389154 33.9848 2.2916L22.272 14.0044C21.8915 14.3849 21.2745 14.3849 20.894 14.0044L9.18126 2.2916C7.27881 0.389154 4.19385 0.389154 2.29141 2.2916C0.388958 4.19405 0.388956 7.27901 2.2914 9.18146L14.0042 20.8942C14.3847 21.2747 14.3847 21.8917 14.0042 22.2722L2.29141 33.985C0.388958 35.8874 0.388958 38.9724 2.29141 40.8748C4.19385 42.7773 7.27882 42.7773 9.18126 40.8748L20.894 29.162C21.2745 28.7816 21.8915 28.7816 22.272 29.162L33.9848 40.8748C35.8872 42.7773 38.9722 42.7773 40.8746 40.8748C42.7771 38.9724 42.7771 35.8874 40.8746 33.985Z" fill="#FF5252"/>
</svg>
