<svg width="103" height="103" viewBox="0 0 103 103" fill="none" xmlns="http://www.w3.org/2000/svg">
<g clip-path="url(#clip0)">
<path d="M65.8249 46.7886C61.7831 44.5549 57.4859 42.8531 53.2314 41.0874C50.7637 40.0663 48.4024 38.875 46.3177 37.2158C42.212 33.9397 42.9991 28.6215 47.8068 26.5155C49.1682 25.9198 50.5935 25.7284 52.0401 25.6433C57.6136 25.3455 62.9105 26.3666 67.9522 28.7917C70.4624 30.0042 71.292 29.6213 72.143 27.0048C73.0364 24.2393 73.781 21.4313 74.6106 18.6445C75.1637 16.7725 74.483 15.5387 72.7173 14.7516C69.4838 13.3263 66.1653 12.3052 62.6765 11.7521C58.1241 11.0501 58.1241 11.0288 58.1028 6.45514C58.0816 0.00945475 58.0816 0.00945462 51.6146 0.00945462C50.6786 0.00945462 49.7426 -0.0118183 48.8066 0.00945462C45.7858 0.0945462 45.2753 0.626369 45.1902 3.66839C45.1476 5.02986 45.1902 6.39133 45.1689 7.77406C45.1476 11.8159 45.1264 11.7521 41.2547 13.1561C31.8946 16.5598 26.1084 22.9416 25.4915 33.1526C24.9384 42.1936 29.661 48.2989 37.0852 52.745C41.6589 55.4892 46.7218 57.1059 51.5721 59.2545C53.4654 60.0841 55.2736 61.0414 56.8477 62.3603C61.5065 66.2107 60.6556 72.6139 55.1246 75.039C52.1677 76.3366 49.0406 76.6557 45.8284 76.2515C40.8718 75.6346 36.1279 74.337 31.6606 72.0182C29.0441 70.6568 28.2782 71.0184 27.3848 73.8477C26.6189 76.2941 25.9382 78.7617 25.2575 81.2294C24.3427 84.548 24.6831 85.3351 27.8528 86.888C31.8946 88.8451 36.213 89.8449 40.6165 90.5469C44.0627 91.1 44.1691 91.2489 44.2116 94.8228C44.2329 96.4395 44.2329 98.0775 44.2542 99.6943C44.2755 101.736 45.254 102.928 47.36 102.97C49.7426 103.013 52.1464 103.013 54.529 102.949C56.4861 102.906 57.4859 101.843 57.4859 99.8645C57.4859 97.6521 57.5923 95.4184 57.5072 93.2061C57.4008 90.9511 58.3794 89.8024 60.5492 89.2067C65.5484 87.8453 69.8029 85.1649 73.079 81.1656C82.1838 70.1037 78.7163 53.915 65.8249 46.7886Z" fill="#F7B632"/>
</g>
<defs>
<clipPath id="clip0">
<rect width="103" height="103" fill="white"/>
</clipPath>
</defs>
</svg>
