<svg width="45" height="46" viewBox="0 0 45 46" fill="none" xmlns="http://www.w3.org/2000/svg">
<g clip-path="url(#clip0)">
<path d="M41.5323 28.9189C40.9132 28.9189 40.4115 29.4206 40.4115 30.0396V39.9905C40.4093 41.8467 38.9055 43.3509 37.0493 43.3527H5.60269C3.74648 43.3509 2.24268 41.8467 2.24049 39.9905V10.7853C2.24268 8.92953 3.74648 7.4253 5.60269 7.42311H15.5536C16.1726 7.42311 16.6743 6.9214 16.6743 6.30237C16.6743 5.68378 16.1726 5.18164 15.5536 5.18164H5.60269C2.50929 5.18514 0.00252573 7.69191 -0.000976562 10.7853V39.9909C0.00252573 43.0843 2.50929 45.5911 5.60269 45.5946H37.0493C40.1427 45.5911 42.6495 43.0843 42.653 39.9909V30.0396C42.653 29.4206 42.1513 28.9189 41.5323 28.9189Z" fill="black"/>
<path d="M42.2099 2.29751C40.2403 0.327912 37.047 0.327912 35.0774 2.29751L15.0829 22.2921C14.9458 22.4291 14.8469 22.599 14.7952 22.7855L12.1659 32.278C12.0578 32.6672 12.1676 33.084 12.4531 33.3698C12.739 33.6553 13.1557 33.7652 13.5449 33.6575L23.0374 31.0277C23.2239 30.976 23.3938 30.8771 23.5308 30.7401L43.525 10.745C45.4915 8.77413 45.4915 5.58354 43.525 3.61262L42.2099 2.29751ZM17.5248 23.0206L33.8889 6.65611L39.1664 11.9336L22.8019 28.2981L17.5248 23.0206ZM16.4707 25.136L20.687 29.3527L14.8548 30.9686L16.4707 25.136ZM41.9402 9.16025L40.7516 10.3488L35.4736 5.07089L36.6627 3.8823C37.7567 2.78827 39.5306 2.78827 40.6246 3.8823L41.9402 5.19741C43.0325 6.29275 43.0325 8.06535 41.9402 9.16025Z" fill="black"/>
</g>
<defs>
<clipPath id="clip0">
<rect width="45" height="45" fill="white" transform="translate(0 0.650391)"/>
</clipPath>
</defs>
</svg>
