<svg width="121" height="121" viewBox="0 0 121 121" fill="none" xmlns="http://www.w3.org/2000/svg">
<path d="M75.625 0V30.25H105.875L75.625 0Z" fill="white"/>
<path d="M75.625 37.8125C71.4581 37.8125 68.0625 34.4169 68.0625 30.25V0H22.6875C18.5206 0 15.125 3.39556 15.125 7.5625V113.438C15.125 117.612 18.5206 121 22.6875 121H98.3125C102.487 121 105.875 117.612 105.875 113.438V37.8125H75.625ZM41.5938 23.1564V18.9062C41.5938 16.819 43.2878 15.125 45.375 15.125C47.4622 15.125 49.1562 16.819 49.1562 18.9062V23.1639C51.5233 23.7009 53.7316 24.6991 55.5541 26.1814C57.1801 27.4972 57.4221 29.8794 56.0986 31.4978C54.7752 33.1237 52.393 33.3582 50.7822 32.0423C49.3529 30.8853 47.432 30.25 45.375 30.25C41.2761 30.25 37.8125 32.8439 37.8125 35.9219C37.8125 38.9998 41.2761 41.5938 45.375 41.5938C53.7164 41.5938 60.5 47.5303 60.5 54.8281C60.5 60.9764 55.66 66.1114 49.1562 67.5936V71.8438C49.1562 73.931 47.4622 75.625 45.375 75.625C43.2878 75.625 41.5938 73.931 41.5938 71.8438V67.5861C39.2267 67.0491 37.0184 66.0509 35.1959 64.5686C33.5699 63.2452 33.3279 60.863 34.6514 59.2446C35.9748 57.6111 38.3494 57.3843 39.9678 58.7001C41.3971 59.8647 43.318 60.5 45.375 60.5C49.4739 60.5 52.9375 57.9061 52.9375 54.8281C52.9375 51.7502 49.4739 49.1562 45.375 49.1562C37.0336 49.1562 30.25 43.2197 30.25 35.9219C30.25 29.7736 35.09 24.6386 41.5938 23.1564ZM86.9688 105.875H34.0312C31.944 105.875 30.25 104.181 30.25 102.094C30.25 100.007 31.944 98.3125 34.0312 98.3125H86.9688C89.056 98.3125 90.75 100.007 90.75 102.094C90.75 104.181 89.056 105.875 86.9688 105.875ZM86.9688 90.75H34.0312C31.944 90.75 30.25 89.056 30.25 86.9688C30.25 84.8815 31.944 83.1875 34.0312 83.1875H86.9688C89.056 83.1875 90.75 84.8815 90.75 86.9688C90.75 89.056 89.056 90.75 86.9688 90.75ZM86.9688 75.625H71.8438C69.7565 75.625 68.0625 73.931 68.0625 71.8438C68.0625 69.7565 69.7565 68.0625 71.8438 68.0625H86.9688C89.056 68.0625 90.75 69.7565 90.75 71.8438C90.75 73.931 89.056 75.625 86.9688 75.625ZM86.9688 60.5H71.8438C69.7565 60.5 68.0625 58.806 68.0625 56.7188C68.0625 54.6315 69.7565 52.9375 71.8438 52.9375H86.9688C89.056 52.9375 90.75 54.6239 90.75 56.7188C90.75 58.806 89.056 60.5 86.9688 60.5Z" fill="white"/>
</svg>
