<svg width="118" height="118" viewBox="0 0 118 118" fill="none" xmlns="http://www.w3.org/2000/svg">
<path d="M77.4375 7.375H69.4282C67.909 3.08275 63.8085 0 59 0C54.1915 0 50.091 3.08275 48.5644 7.375H40.5625C38.527 7.375 36.875 9.027 36.875 11.0625V25.8125C36.875 27.848 38.527 29.5 40.5625 29.5H77.4375C79.473 29.5 81.125 27.848 81.125 25.8125V11.0625C81.125 9.027 79.473 7.375 77.4375 7.375Z" fill="white"/>
<path d="M95.875 14.75H88.5V25.8125C88.5 31.9116 83.5366 36.875 77.4375 36.875H40.5625C34.4634 36.875 29.5 31.9116 29.5 25.8125V14.75H22.125C18.0614 14.75 14.75 18.0614 14.75 22.125V110.625C14.75 114.762 17.9876 118 22.125 118H95.875C100.012 118 103.25 114.762 103.25 110.625V22.125C103.25 17.9876 100.012 14.75 95.875 14.75ZM57.9233 80.0482L43.1733 94.7982C42.4505 95.5136 40.5625 95.875 40.5625 95.875C40.5625 95.875 38.6745 95.5136 37.9517 94.7982L30.5767 87.4232C29.1386 85.9851 29.1386 83.6473 30.5767 82.2091C32.0149 80.771 34.3528 80.771 35.7909 82.2091L40.5625 86.9734L52.7017 74.8341C54.1399 73.396 56.4778 73.396 57.9159 74.8341C59.354 76.2723 59.3614 78.6027 57.9233 80.0482ZM57.9233 50.5483L43.1733 65.2983C42.4505 66.0136 41.5065 66.375 40.5625 66.375C39.6185 66.375 38.6745 66.0136 37.9517 65.2983L30.5767 57.9233C29.1386 56.4851 29.1386 54.1472 30.5767 52.7091C32.0149 51.271 34.3528 51.271 35.7909 52.7091L40.5625 57.4734L52.7017 45.3341C54.1399 43.896 56.4778 43.896 57.9159 45.3341C59.354 46.7722 59.3614 49.1028 57.9233 50.5483ZM84.8125 88.5H70.0625C68.027 88.5 66.375 86.848 66.375 84.8125C66.375 82.777 68.027 81.125 70.0625 81.125H84.8125C86.848 81.125 88.5 82.777 88.5 84.8125C88.5 86.848 86.848 88.5 84.8125 88.5ZM84.8125 59H70.0625C68.027 59 66.375 57.348 66.375 55.3125C66.375 53.277 68.027 51.625 70.0625 51.625H84.8125C86.848 51.625 88.5 53.277 88.5 55.3125C88.5 57.348 86.848 59 84.8125 59Z" fill="white"/>
<rect x="25.2861" y="42.6387" width="67.4286" height="60.9832" fill="white"/>
<rect x="29" y="56" width="61" height="10" rx="5" fill="#263238"/>
<rect x="29" y="90" width="61" height="10" rx="5" fill="#263238"/>
<rect x="29" y="73" width="61" height="10" rx="5" fill="#263238"/>
<path d="M77.4375 7.375H69.4282C67.909 3.08275 63.8085 0 59 0C54.1915 0 50.091 3.08275 48.5644 7.375H40.5625C38.527 7.375 36.875 9.027 36.875 11.0625V25.8125C36.875 27.848 38.527 29.5 40.5625 29.5H77.4375C79.473 29.5 81.125 27.848 81.125 25.8125V11.0625C81.125 9.027 79.473 7.375 77.4375 7.375Z" fill="white"/>
<path d="M95.875 14.75H88.5V25.8125C88.5 31.9116 83.5366 36.875 77.4375 36.875H40.5625C34.4634 36.875 29.5 31.9116 29.5 25.8125V14.75H22.125C18.0614 14.75 14.75 18.0614 14.75 22.125V110.625C14.75 114.762 17.9876 118 22.125 118H95.875C100.012 118 103.25 114.762 103.25 110.625V22.125C103.25 17.9876 100.012 14.75 95.875 14.75ZM57.9233 80.0482L43.1733 94.7982C42.4505 95.5136 40.5625 95.875 40.5625 95.875C40.5625 95.875 38.6745 95.5136 37.9517 94.7982L30.5767 87.4232C29.1386 85.9851 29.1386 83.6473 30.5767 82.2091C32.0149 80.771 34.3528 80.771 35.7909 82.2091L40.5625 86.9734L52.7017 74.8341C54.1399 73.396 56.4778 73.396 57.9159 74.8341C59.354 76.2723 59.3614 78.6027 57.9233 80.0482ZM57.9233 50.5483L43.1733 65.2983C42.4505 66.0136 41.5065 66.375 40.5625 66.375C39.6185 66.375 38.6745 66.0136 37.9517 65.2983L30.5767 57.9233C29.1386 56.4851 29.1386 54.1472 30.5767 52.7091C32.0149 51.271 34.3528 51.271 35.7909 52.7091L40.5625 57.4734L52.7017 45.3341C54.1399 43.896 56.4778 43.896 57.9159 45.3341C59.354 46.7722 59.3614 49.1028 57.9233 50.5483ZM84.8125 88.5H70.0625C68.027 88.5 66.375 86.848 66.375 84.8125C66.375 82.777 68.027 81.125 70.0625 81.125H84.8125C86.848 81.125 88.5 82.777 88.5 84.8125C88.5 86.848 86.848 88.5 84.8125 88.5ZM84.8125 59H70.0625C68.027 59 66.375 57.348 66.375 55.3125C66.375 53.277 68.027 51.625 70.0625 51.625H84.8125C86.848 51.625 88.5 53.277 88.5 55.3125C88.5 57.348 86.848 59 84.8125 59Z" fill="white"/>
<rect x="29" y="56" width="61" height="10" rx="5" fill="#263238"/>
<rect x="29" y="90" width="61" height="10" rx="5" fill="#263238"/>
<rect x="29" y="73" width="61" height="10" rx="5" fill="#263238"/>
</svg>
