<svg width="45" height="45" viewBox="0 0 45 45" fill="none" xmlns="http://www.w3.org/2000/svg">
<path d="M40.6651 23.3517L45 22.5877L43.6071 14.6863L39.2759 15.4502C38.6766 14.022 37.8998 12.6877 36.9749 11.4725L39.8043 8.09964L33.6578 2.94222L30.8312 6.31238C29.4811 5.6155 28.0324 5.08323 26.5111 4.7409V0.341797H18.4888V4.7409C16.9675 5.08332 15.5188 5.6155 14.1687 6.31238L11.342 2.9423L5.19557 8.09981L8.02503 11.4727C7.10016 12.6879 6.32329 14.0221 5.72405 15.4504L1.3928 14.6865L0 22.5877L4.33494 23.3516C4.40938 24.9212 4.68202 26.4378 5.12859 27.8791L1.32029 30.0777L5.33232 37.0254L9.14528 34.8239C10.1864 35.9498 11.3681 36.9453 12.6633 37.779L11.1578 41.9139L18.6972 44.6577L20.2027 40.5228C20.9545 40.6178 21.7222 40.6671 22.5 40.6671C23.2778 40.6671 24.0455 40.6178 24.7973 40.5228L26.3028 44.6577L33.8421 41.9139L32.3366 37.779C33.6318 36.9453 34.8135 35.9497 35.8546 34.8239L39.6676 37.0254L43.6796 30.0777L39.8713 27.8791C40.318 26.4379 40.5906 24.9213 40.6651 23.3517ZM22.5 30.8613C17.8719 30.8613 14.1204 27.1098 14.1204 22.4817C14.1204 17.8537 17.8719 14.1021 22.5 14.1021C27.1281 14.1021 30.8796 17.8537 30.8796 22.4817C30.8796 27.1098 27.1281 30.8613 22.5 30.8613Z" fill="black"/>
</svg>
